<svg version="1.1" id="Layer_1" xmlns="http://www.w3.org/2000/svg" xmlns:xlink="http://www.w3.org/1999/xlink" x="0px" y="0px"
	 width="100%" viewBox="0 0 460 460" enable-background="new 0 0 460 460" xml:space="preserve">
<path fill="#FFFFFF" opacity="1.000000" stroke="none" 
	d="
M3.257523,460.724976 
	C2.372708,460.588196 0.879674,461.973236 0.988303,460.000458 
	C1.052327,458.837738 1.000000,457.668640 1.000000,456.502411 
	C1.000000,306.224854 1.023656,155.947281 0.878269,5.669868 
	C0.874185,1.449023 1.937428,0.896467 5.826804,0.899537 
	C155.937668,1.018043 306.048615,1.017552 456.159515,0.901566 
	C460.020447,0.898583 461.133728,1.405078 461.125183,5.656298 
	C460.957001,89.458176 461.000000,173.260468 461.000000,257.531342 
	C453.030273,258.154236 445.105377,257.726715 437.424835,255.427414 
	C434.547424,254.566010 431.781067,253.414490 428.696869,253.673233 
	C427.073151,253.809448 425.525543,253.423843 425.025024,251.762833 
	C424.026367,248.448792 421.854706,248.829834 419.141571,249.172882 
	C408.698395,250.493332 398.313171,251.860535 389.243927,257.863342 
	C388.836121,258.133301 388.321167,258.354919 387.842438,258.364624 
	C379.196136,258.540405 371.142242,262.534058 362.460388,262.344696 
	C358.598175,262.260498 354.793243,262.772217 351.047363,263.404816 
	C338.703705,265.489380 327.766541,261.045410 316.980103,256.226624 
	C308.487061,252.432388 300.298798,247.968796 291.761841,243.388428 
	C283.808777,239.011765 283.657471,238.973099 281.394012,247.828857 
	C279.368805,255.752289 274.472839,261.522278 268.042389,266.693848 
	C264.419189,267.658813 261.083374,267.209534 257.774994,267.312408 
	C255.785767,267.374268 253.556717,266.879089 251.880951,267.885620 
	C245.240204,271.874359 239.286804,269.407379 233.251801,266.438812 
	C231.692917,265.672028 230.390900,264.957825 229.937347,263.088470 
	C228.810059,258.442261 232.812073,248.503464 237.007874,246.082886 
	C245.220459,241.344940 253.141479,236.206543 260.330322,229.625824 
	C260.502625,229.474915 260.655426,229.218002 260.539124,229.348602 
	C249.351395,237.191437 249.382248,237.146149 238.477707,229.715469 
	C234.989960,227.338806 231.400894,225.193939 231.483276,220.242538 
	C231.488617,219.920715 231.390274,219.518677 231.165253,219.313690 
	C227.679642,216.138321 228.507172,213.066620 231.283890,209.958008 
	C231.703232,209.488556 231.693329,208.710938 231.880005,207.719360 
	C232.007553,207.164093 232.070816,206.947769 232.271317,206.428986 
	C232.838425,205.408112 233.488892,204.830002 233.845123,203.717072 
	C234.049362,203.041214 234.181183,202.662186 234.446976,202.025146 
	C235.269272,200.278244 234.164871,200.394714 232.944183,200.326843 
	C228.976456,200.268951 225.474472,201.476456 221.440918,201.392273 
	C215.448212,201.372772 209.906830,201.377960 204.373154,202.692154 
	C199.275269,203.902847 192.934662,199.369156 190.430786,192.950470 
	C196.168213,190.617798 198.826492,184.834167 204.115646,182.053192 
	C208.763794,179.609253 213.485092,177.300491 218.203995,175.000931 
	C219.706299,174.268860 221.219742,173.690857 222.492950,172.045364 
	C224.265259,171.010696 225.259460,171.952087 226.250854,172.864044 
	C227.705597,174.202194 229.411713,174.570526 231.331329,174.300980 
	C237.749756,173.399765 243.469345,175.054459 248.608322,178.969696 
	C250.057526,180.073822 251.495010,181.219940 253.082611,182.129608 
	C254.990707,183.222900 256.994812,183.719299 258.136108,181.253830 
	C259.154877,179.053085 258.113495,177.359741 255.977341,176.446564 
	C254.138931,175.660690 252.427200,174.633484 250.623611,173.799576 
	C242.982498,170.266663 234.904495,167.860489 227.076004,164.804672 
	C223.862976,163.550476 225.596329,167.518631 223.641113,168.190643 
	C221.835999,168.335449 221.005722,167.187836 219.911728,166.476151 
	C217.675720,165.021515 214.238419,164.280396 212.961121,165.973389 
	C209.601974,170.425797 203.926376,171.715088 200.658585,176.046631 
	C198.238922,179.253983 195.450577,182.031616 191.089142,182.961807 
	C189.756943,181.424576 189.851593,179.886337 190.431091,178.499512 
	C193.940063,170.101761 197.031158,161.493362 202.661697,154.148560 
	C204.236496,152.094299 206.131638,151.737366 208.379944,152.578323 
	C210.556580,153.392471 212.736771,154.199051 214.909805,155.023453 
	C219.370453,156.715729 222.153397,154.508911 221.170334,149.764526 
	C220.230225,145.227509 218.706604,140.837036 216.951660,136.502197 
	C214.969025,131.604904 212.028732,127.063194 211.230331,121.337685 
	C214.569901,117.265488 217.338867,116.987404 220.999695,119.793999 
	C224.423080,122.418541 225.754669,126.498833 228.410126,130.127487 
	C228.729614,130.691605 228.846710,130.921402 229.110138,131.505035 
	C236.431717,144.897415 236.355087,144.547379 253.353333,143.041595 
	C254.702698,142.697754 255.724411,142.613708 257.051086,142.142334 
	C260.948120,141.257919 264.584320,142.096909 268.449036,141.171112 
	C270.492615,140.299927 272.437805,140.144409 274.169189,138.643311 
	C278.982147,133.625351 278.982788,133.625015 282.129822,139.668579 
	C282.503876,140.386917 282.865723,141.111603 283.432068,142.096893 
	C284.176910,143.185791 284.717133,143.350098 285.318481,141.963287 
	C286.235168,139.774994 286.889984,137.816422 286.460785,135.828079 
	C285.093475,129.493469 284.874481,123.016289 283.798798,116.268936 
	C282.848267,113.295021 282.867096,110.448021 281.362915,107.637680 
	C281.219513,102.632355 281.805176,98.013084 282.128754,93.378143 
	C282.234619,91.861786 282.559113,90.288734 281.577911,89.028572 
	C273.816071,79.060326 267.680267,67.978981 260.164062,57.845577 
	C259.767792,57.311298 260.244568,58.000729 259.506378,57.318737 
	C258.643494,56.771305 258.092041,56.384178 257.270752,55.830055 
	C256.235535,55.020378 255.500504,54.304646 254.065002,54.439976 
	C253.342087,54.339180 252.960678,54.171513 252.352875,53.742416 
	C251.169922,52.548435 249.971298,52.070122 248.340210,51.670280 
	C241.710602,51.078884 237.047531,46.937653 231.763321,44.235630 
	C224.886749,40.719372 217.411362,40.194870 209.984695,39.354912 
	C207.683868,39.094692 205.291382,39.438805 203.383728,37.662048 
	C202.590073,36.922844 201.574341,36.901237 200.556564,37.052116 
	C188.060471,38.904610 175.392944,40.078781 164.159409,46.729076 
	C161.287201,48.429424 158.044632,49.368980 154.966049,50.627033 
	C151.145828,52.188148 150.229828,51.310772 150.762970,47.217171 
	C150.922913,45.989197 151.523438,44.734737 150.962128,43.677574 
	C151.458633,48.355209 147.249039,50.967789 145.381973,55.062542 
	C140.979248,58.545029 138.154572,62.898746 135.044205,66.969185 
	C132.358063,70.484444 131.806534,74.504967 133.224823,78.778236 
	C133.956146,80.981689 134.706436,83.182289 135.348206,85.415085 
	C135.763107,86.858551 136.301270,88.437775 135.339005,89.752014 
	C126.933029,101.232628 127.217079,114.021194 128.808899,127.361465 
	C130.002609,137.365173 130.168503,147.544937 128.296143,157.996887 
	C125.077469,168.669678 126.041557,179.209686 126.887268,189.585770 
	C127.553108,197.754944 136.916809,203.794388 146.646851,203.568771 
	C157.174393,203.324646 157.175385,203.324310 160.705902,213.494095 
	C160.924255,214.123093 161.038315,214.841232 161.458389,215.332565 
	C168.737167,223.845764 168.736191,235.043137 172.312912,244.914627 
	C174.499664,250.949921 177.382858,256.963898 176.023651,264.137054 
	C174.723694,267.062225 173.217117,269.478546 172.618805,272.672089 
	C166.900940,276.526337 164.230652,282.553436 160.437241,287.471130 
	C154.461456,295.217987 146.543045,299.711212 138.124756,303.618164 
	C130.934082,306.955322 125.338699,311.652618 121.243729,318.492828 
	C118.236092,323.516724 114.059525,327.550598 108.594658,330.160706 
	C94.936516,336.684082 81.455414,343.511841 68.827202,351.968872 
	C65.436195,354.239838 61.635704,356.070984 58.009117,358.077545 
	C54.507175,360.015167 51.105927,362.114563 48.710854,365.464935 
	C44.726524,371.038452 39.423775,374.783295 33.098198,377.397308 
	C28.010443,379.499786 23.407837,382.526764 19.688745,386.720123 
	C17.864410,388.777130 16.513296,390.958435 16.941187,393.901367 
	C17.235092,395.922821 16.728912,397.907867 16.023985,399.770752 
	C11.752399,411.059479 10.148190,422.923004 8.042700,434.714874 
	C6.754990,441.926697 5.916336,449.149841 5.184687,456.410217 
	C5.031775,457.927582 4.738072,459.378662 3.257523,460.724976 
z"/>
<path fill="#010101" opacity="1.000000" stroke="none" 
	d="
M290.657776,242.377441 
	C295.477905,241.726562 298.222046,245.396576 301.734039,247.172073 
	C308.663055,250.675110 315.559509,254.239914 322.797089,257.012115 
	C326.757690,258.529114 330.636261,260.248291 334.779938,261.453735 
	C341.308929,263.353088 347.597290,262.249329 353.950012,261.646698 
	C357.091766,261.348633 360.251617,260.689026 363.359711,261.078705 
	C367.124908,261.550720 370.451385,261.264465 373.592621,258.867767 
	C375.696259,257.262726 378.522736,257.347870 380.817291,258.009705 
	C383.832642,258.879456 386.760315,258.155792 388.705933,256.739044 
	C397.004181,250.696335 406.622070,249.412048 416.283691,248.524750 
	C419.849426,248.197266 425.614441,244.047623 426.544067,252.154175 
	C426.565002,252.336731 427.337616,252.489014 427.775085,252.559616 
	C438.592834,254.306213 449.412659,256.039886 460.616058,257.887939 
	C461.000000,260.041656 461.000000,262.083344 461.000000,264.562500 
	C460.524353,265.482971 460.003998,265.906708 459.093140,266.360535 
	C456.227692,268.274445 455.186554,270.941772 454.321503,274.126221 
	C452.671722,278.158905 451.486389,281.955322 450.957336,286.331635 
	C449.863586,291.412079 451.021088,296.247467 450.303345,300.959717 
	C450.883331,296.414337 450.017944,291.773682 450.943665,286.853271 
	C451.374451,282.572540 452.988586,278.996307 454.023010,274.905212 
	C455.155365,272.095337 455.891571,269.499817 458.158691,267.315002 
	C458.617950,266.926178 458.822418,266.796722 459.371643,266.555756 
	C459.955078,266.479858 460.193665,266.515442 460.716125,266.775513 
	C461.000000,278.020905 461.000000,289.041779 461.000000,300.531342 
	C460.281952,301.732300 459.491333,302.384521 458.499573,303.280609 
	C456.894287,304.826202 455.543549,306.177795 454.490417,308.192505 
	C453.399139,309.186859 452.413300,309.581268 451.215912,309.224731 
	C453.344757,311.306396 454.184601,309.650970 455.157959,307.681702 
	C455.790466,306.406036 456.532257,305.737274 457.930237,305.291443 
	C458.881653,305.225433 459.401642,305.360321 460.137512,305.949829 
	C460.630402,309.288269 460.366455,312.308075 460.768921,315.660309 
	C461.000000,343.020905 461.000000,370.041779 461.000000,397.531342 
	C456.331512,400.538544 454.122040,396.731567 451.179535,393.974976 
	C450.153595,391.924377 448.697418,390.708160 447.136230,389.133392 
	C446.543671,388.613678 446.484711,388.097839 446.059357,387.883972 
	C446.221924,388.132202 446.400421,388.368713 446.831787,388.833008 
	C448.181641,390.299988 449.551025,391.308594 450.428833,393.196167 
	C450.997986,398.198273 448.199585,401.872742 446.729889,405.942322 
	C446.211212,407.378540 445.123322,407.367889 443.994751,405.829681 
	C443.572418,404.810303 443.072998,404.222168 442.918884,403.479553 
	C442.860352,404.478668 443.568817,405.212891 443.952026,406.486389 
	C447.041504,413.956604 446.824188,421.569733 447.346130,428.980804 
	C447.976440,437.931122 447.540833,446.944641 447.490936,455.930786 
	C447.482605,457.430481 447.380188,458.932190 446.275696,460.632324 
	C409.312439,461.000000 372.624878,461.000000 335.468658,461.000000 
	C332.256714,454.408539 333.480774,447.538452 334.048706,440.855835 
	C334.874176,431.142883 334.188843,421.732025 332.439331,412.112610 
	C329.515900,396.038483 325.312866,380.293182 321.567383,364.432678 
	C318.950256,353.350250 314.524048,342.875854 308.174438,333.398895 
	C302.881653,325.499237 299.912720,316.725311 297.519836,307.722687 
	C296.563232,304.123688 294.387329,301.100677 293.441376,297.092346 
	C290.502716,286.722260 291.732605,276.526550 291.476624,266.421600 
	C291.308899,259.800201 292.114929,253.115128 290.027222,246.623154 
	C289.617615,245.349396 289.766541,243.985245 290.657776,242.377441 
z"/>
<path fill="#010101" opacity="1.000000" stroke="none" 
	d="
M3.468658,461.000000 
	C5.000231,447.750854 6.701568,434.446808 9.119591,421.274353 
	C10.441877,414.070984 11.138197,406.565155 15.060551,400.036530 
	C13.636196,384.553589 24.882902,379.470062 36.168530,374.640381 
	C40.427917,372.817566 43.934208,370.016083 46.240154,366.394226 
	C50.377754,359.895416 56.984512,356.624695 63.171005,353.449921 
	C69.261147,350.324585 74.976418,346.664398 80.681053,343.054688 
	C87.836372,338.526978 95.576393,335.290497 103.088440,331.593018 
	C110.953369,327.721863 117.502174,322.956726 122.011421,315.155396 
	C125.397583,309.297150 130.859436,305.388794 137.209610,302.587463 
	C143.042786,300.014191 149.820282,297.795349 153.810867,293.310669 
	C158.207108,288.370087 163.508484,283.651855 166.144623,277.200012 
	C167.099228,274.863617 168.645950,273.361786 171.494156,272.816345 
	C173.499069,272.555267 173.803482,273.805115 174.034882,274.914612 
	C176.630264,287.357910 181.997696,298.391876 190.606613,307.802643 
	C191.050735,308.288147 191.325363,308.916565 191.865936,309.801941 
	C194.104263,313.487640 197.294708,316.146149 198.401459,320.531128 
	C207.075745,335.039368 214.542023,349.801270 219.069748,365.664886 
	C222.625107,378.121582 226.071396,390.641479 229.450897,403.161896 
	C232.435303,414.218567 236.113800,425.125427 240.142624,435.861115 
	C242.733032,442.763733 243.025833,450.222534 245.910995,457.008820 
	C246.364868,458.076385 246.126953,459.314697 245.242996,460.687805 
	C164.645767,461.000000 84.291542,461.000000 3.468658,461.000000 
z"/>
<path fill="#272721" opacity="1.000000" stroke="none" 
	d="
M324.226074,460.672577 
	C303.645782,461.000000 283.291534,461.000000 262.468658,461.000000 
	C261.472626,460.348206 260.896149,459.647919 260.876617,458.815186 
	C260.605743,447.270203 257.784485,436.063965 255.325226,424.944885 
	C251.936462,409.623199 253.168854,393.867126 249.424255,378.582672 
	C247.475586,370.628662 249.645050,362.093445 250.097961,353.830566 
	C250.644882,343.852112 250.256683,334.454681 242.257706,326.732086 
	C238.500412,323.104614 234.851501,319.141754 231.652222,314.405579 
	C231.940781,306.984253 234.403122,300.883453 240.013672,295.903015 
	C245.023026,295.814240 249.969894,298.038696 254.533386,293.947937 
	C251.353775,293.542572 248.568878,296.389893 245.663544,293.606995 
	C245.483902,293.043976 245.463089,292.803375 245.534622,292.209991 
	C246.273010,290.739075 247.355316,290.159515 248.772888,289.427429 
	C249.340973,289.197449 249.574036,289.120361 250.165146,288.958984 
	C252.706223,288.762634 254.784058,287.692780 257.375244,288.283936 
	C257.920563,288.544128 258.121368,288.680450 258.559784,289.088928 
	C263.937469,295.117096 270.877838,299.049286 275.442657,305.904144 
	C275.855774,306.677612 276.013092,307.157288 276.182861,308.038849 
	C276.331787,313.574890 276.613556,318.724426 275.591888,323.840546 
	C274.941559,327.097107 275.614471,330.274841 277.637268,332.840057 
	C282.295135,338.746948 284.344696,345.798279 286.622864,352.716858 
	C290.258636,363.758545 294.767578,374.491882 298.082367,385.643066 
	C300.022461,392.169647 300.272095,399.017944 302.599335,405.532776 
	C308.686005,422.571411 314.610718,439.648407 323.214966,455.642059 
	C323.998291,457.098083 324.871338,458.559509 324.226074,460.672577 
z"/>
<path fill="#E1E000" opacity="1.000000" stroke="none" 
	d="
M324.458069,461.000000 
	C318.693146,449.463013 312.063690,438.322357 308.453979,426.276764 
	C304.893433,414.395355 298.447327,403.361938 297.784790,390.494263 
	C297.520874,385.368469 295.477875,380.158936 293.422333,375.338226 
	C289.483337,366.100616 286.416504,356.563293 283.211243,347.086609 
	C281.594513,342.306580 279.333191,338.081451 276.610535,333.922943 
	C274.329041,330.438293 272.911163,326.687256 274.226532,322.205414 
	C275.502991,317.856049 274.792572,313.272522 274.808777,308.318237 
	C279.002655,308.812225 279.377380,313.093628 281.788452,315.557220 
	C283.016266,316.811829 283.608215,319.596344 286.472412,317.075317 
	C290.273590,311.861542 289.902588,305.491302 292.646484,300.222290 
	C293.157959,299.240173 293.042908,297.941833 294.371460,297.068512 
	C299.738556,307.146271 300.877289,318.789978 306.867279,328.498077 
	C311.967224,336.763733 316.642517,345.206482 319.955200,354.356781 
	C323.723969,364.766907 325.733307,375.640259 328.284149,386.366272 
	C332.178467,402.741608 336.685150,419.022430 335.750275,436.149353 
	C335.315735,444.110016 335.290894,452.093018 335.040161,460.532959 
	C331.638702,461.000000 328.277435,461.000000 324.458069,461.000000 
z"/>
<path fill="#E1E000" opacity="1.000000" stroke="none" 
	d="
M231.761932,312.924500 
	C237.467499,318.955505 242.774094,324.929779 248.218307,330.775848 
	C249.149170,331.775391 250.207352,332.607941 250.277863,334.009705 
	C250.569229,339.801636 252.498474,345.459900 251.840652,351.314972 
	C250.296356,365.060211 250.934341,378.621765 252.806610,392.392548 
	C254.630875,405.810333 255.838928,419.341583 258.374390,432.654266 
	C260.108612,441.760040 262.513428,450.726898 262.107849,460.550415 
	C256.645081,461.000000 251.290146,461.000000 245.467606,461.000000 
	C242.825180,452.246307 241.072784,443.409851 238.321289,434.772400 
	C234.477188,422.705017 230.581146,410.638733 226.818588,398.547760 
	C222.321701,384.097046 219.840424,369.082031 213.724030,355.028107 
	C210.588135,347.822662 207.615570,340.518555 204.106750,333.476959 
	C202.085632,329.421021 199.500122,325.646301 197.122543,321.402893 
	C202.325256,319.825348 206.551910,322.655243 210.923889,324.681671 
	C214.015488,326.114624 216.925537,327.784912 220.400085,324.819733 
	C224.764893,323.696320 227.054840,320.971039 228.541367,317.243317 
	C229.185471,315.628082 229.605759,313.740601 231.761932,312.924500 
z"/>
<path fill="#FBFBFB" opacity="1.000000" stroke="none" 
	d="
M446.472656,461.000000 
	C446.399597,442.493164 447.611084,423.933044 442.292786,405.371979 
	C442.523682,404.831696 442.839935,404.715179 443.639221,404.747803 
	C444.996735,404.527008 444.978760,408.284271 446.125671,405.504364 
	C447.683289,401.728851 448.667145,397.716644 449.830627,393.433105 
	C449.973297,392.915985 450.182465,392.771698 450.732941,392.797119 
	C454.528412,394.411652 456.244507,398.682922 460.763733,398.390076 
	C461.000000,417.719360 460.946655,437.439056 461.059692,457.157776 
	C461.075928,459.995209 460.804321,461.469482 457.375458,461.084747 
	C453.938843,460.699097 450.425201,461.000000 446.472656,461.000000 
z"/>
<path fill="#CCCCCC" opacity="1.000000" stroke="none" 
	d="
M457.726440,302.810913 
	C458.217712,300.598694 459.445740,301.260529 460.781403,301.299927 
	C461.000000,305.689240 461.000000,310.378510 461.000000,315.533875 
	C458.685516,313.249969 460.576599,309.941956 459.723816,306.555298 
	C459.302734,305.265106 458.395355,304.976410 457.693909,304.040802 
	C457.554626,303.533081 457.564026,303.315918 457.726440,302.810913 
z"/>
<path fill="#BBBBBB" opacity="1.000000" stroke="none" 
	d="
M458.698944,265.976501 
	C459.395782,265.394867 459.903931,265.161560 460.706055,264.964142 
	C461.000000,265.000000 461.000000,265.500000 460.794220,265.791504 
	C460.352051,266.285339 460.115662,266.487732 459.432251,266.824524 
	C458.826904,266.747528 458.668579,266.536163 458.698944,265.976501 
z"/>
<path fill="#CCCCCC" opacity="1.000000" stroke="none" 
	d="
M460.793701,266.262634 
	C460.588440,266.082977 460.893188,266.166382 460.946594,266.083191 
	C461.000000,266.000000 461.000000,266.500000 461.000000,266.750000 
	C460.999695,266.814087 460.999359,266.628174 460.793701,266.262634 
z"/>
<path fill="#7D7D7D" opacity="1.000000" stroke="none" 
	d="
M191.026184,191.683990 
	C193.263336,198.870682 199.771561,202.624207 206.414490,200.792404 
	C210.978516,199.533859 215.627426,200.172546 220.690643,200.090271 
	C222.773926,202.906464 224.746750,204.799850 228.287827,204.095886 
	C229.923752,203.770645 231.532486,204.294098 232.955765,205.838226 
	C233.278030,209.039917 233.212189,211.819855 230.143784,213.417831 
	C229.115921,213.953140 228.513062,215.037598 229.702896,215.711868 
	C232.613022,217.360992 233.270355,219.861359 233.076904,222.883987 
	C233.006088,223.990204 233.693420,224.619751 234.578003,225.248550 
	C238.690948,228.172241 242.689987,231.257660 246.830872,234.139984 
	C249.248398,235.822739 251.220901,233.615799 253.142273,232.777817 
	C255.990402,231.535645 258.549896,229.631668 261.877747,228.110641 
	C256.642273,236.342484 248.059952,241.016510 239.676819,245.889648 
	C234.765747,248.744507 230.325119,257.087372 230.956589,262.809723 
	C231.099762,264.106934 231.300720,264.831360 232.803513,265.164062 
	C236.143967,265.903748 239.449921,266.675476 242.160202,269.186584 
	C244.013458,270.903625 245.395325,268.237610 246.865433,267.654205 
	C253.459656,265.037445 260.256866,266.021912 267.446594,265.748474 
	C267.963043,270.865143 264.057220,273.763062 261.263580,277.177338 
	C259.424255,279.425232 257.092163,281.402710 254.311371,282.568573 
	C252.213242,283.448242 250.839935,284.974945 249.581757,287.212402 
	C248.393204,288.504333 247.213104,288.928467 245.463684,288.844086 
	C242.863190,288.240265 240.736404,287.271637 237.987457,287.367737 
	C237.260498,287.361023 236.925095,287.325775 236.595078,287.353760 
	C217.607300,288.962341 200.784561,281.474091 183.857498,274.620178 
	C179.956390,273.040588 177.056625,269.885864 175.232452,265.502197 
	C176.154922,255.655762 171.231216,247.525391 169.129211,238.776642 
	C168.733170,237.128296 167.933533,235.364182 167.708771,233.632034 
	C166.350708,223.166351 159.166229,215.172516 155.926407,205.514114 
	C155.075455,202.977295 152.922333,203.982483 151.285767,204.350372 
	C142.456696,206.335022 135.328506,203.375198 128.783081,197.509079 
	C126.348083,195.326752 125.528862,192.499680 125.466675,190.094009 
	C125.194382,179.559616 123.305420,168.885010 127.173233,158.169678 
	C128.052734,157.272049 128.841751,157.132538 130.072586,157.206238 
	C134.614471,157.933258 137.642288,160.366638 140.593704,164.866150 
	C140.661255,156.023926 140.525284,148.559143 140.665802,141.099487 
	C140.756439,136.287811 140.934357,131.440414 143.676208,126.788330 
	C147.222260,125.233582 148.737518,126.955734 149.806396,130.129608 
	C151.516327,135.762482 152.982147,141.004700 155.610107,145.915054 
	C157.779160,149.967911 160.846390,151.735703 165.236847,151.622665 
	C176.712143,151.327179 188.066696,150.159943 199.425812,146.655304 
	C202.861420,145.524536 203.131210,142.815460 203.597504,139.902725 
	C203.574997,138.935974 203.534241,138.291092 203.610809,137.324219 
	C204.040741,136.226135 204.614761,135.551498 204.952454,134.383118 
	C206.626709,131.638565 207.004974,128.852570 207.340851,126.089981 
	C207.642822,123.606140 208.535583,121.671013 211.410248,120.845520 
	C215.028152,129.606689 219.536865,137.852249 222.016083,146.902481 
	C222.543625,148.828201 223.224289,150.711945 222.782227,152.746872 
	C221.763351,157.437012 219.501602,158.453339 215.190170,156.423889 
	C212.525757,155.169739 209.749802,154.121246 206.951645,153.199997 
	C206.011856,152.890579 204.783569,152.466980 203.904221,153.875198 
	C198.345276,162.777588 193.629303,172.055328 190.943512,182.987091 
	C190.941330,183.948502 190.891342,184.171005 190.720215,184.714478 
	C188.949493,187.255112 190.006042,189.294144 191.026184,191.683990 
z"/>
<path fill="#272727" opacity="1.000000" stroke="none" 
	d="
M144.287552,54.702034 
	C146.499756,50.470371 150.240158,47.498199 151.381592,41.976871 
	C152.501938,45.408051 151.964355,47.746548 150.875671,50.555260 
	C157.946320,49.102245 163.701019,45.432537 169.807785,42.746086 
	C177.013229,39.576305 184.526947,37.937424 192.256424,36.969173 
	C195.057709,36.618259 197.845566,36.084843 200.656372,35.917938 
	C201.999146,35.838207 205.067383,33.093151 204.259033,37.789307 
	C204.091095,38.764946 205.566727,38.207451 206.278412,38.197784 
	C218.236649,38.035286 229.647964,40.029926 239.462891,47.373367 
	C242.264526,49.469528 245.899918,48.365566 248.687714,50.873188 
	C249.007065,51.360382 249.137299,51.518551 249.171600,51.920151 
	C249.024399,52.478500 248.354523,52.027290 248.765137,52.619625 
	C249.179626,52.689426 249.349777,52.751202 249.765167,52.967293 
	C252.622726,54.401669 254.928406,56.720051 258.468506,55.304718 
	C264.570953,58.635555 265.909363,65.627991 270.208588,70.483742 
	C274.937256,75.824493 277.187439,83.025330 282.481506,88.067230 
	C283.451538,88.991051 284.434906,90.078308 283.919189,91.505013 
	C282.198029,96.266670 283.432617,101.327393 282.238800,106.547249 
	C278.817139,109.398834 275.354523,107.709976 271.598816,107.005257 
	C269.630005,105.183411 269.097626,103.119965 268.555908,100.988304 
	C266.748077,93.873962 263.854279,91.577980 256.627075,91.359322 
	C243.600708,90.965218 232.148041,86.981293 223.262711,76.960770 
	C220.000504,73.281776 215.276108,74.182663 211.119263,73.446838 
	C208.517746,72.986320 205.792145,73.597916 202.817230,72.812027 
	C200.171448,70.378677 202.565628,68.800606 203.399567,67.054871 
	C204.496735,64.758095 207.069031,63.874878 208.855850,61.854626 
	C205.955994,61.396027 202.206757,63.548923 200.856842,59.826530 
	C199.650833,56.500984 203.854324,57.115059 204.937393,55.206192 
	C204.617050,54.895924 204.450836,54.802982 203.999725,54.614471 
	C200.598099,54.144264 197.841034,55.490757 195.051620,56.475567 
	C189.632721,58.388695 184.290314,60.472324 178.377502,60.195915 
	C176.697968,60.117401 174.348343,61.656879 173.740341,59.081699 
	C173.233047,56.933033 173.252625,54.366959 175.526733,52.747986 
	C176.738785,51.885113 178.123444,51.570206 179.246246,51.588844 
	C173.716461,50.557442 179.359985,48.937092 179.489685,47.208702 
	C174.421021,48.634766 169.429520,49.621521 165.440521,53.190208 
	C162.826660,55.528660 159.914581,56.854359 156.320602,55.440502 
	C154.639969,54.779346 153.065323,55.392536 151.517227,56.067295 
	C149.471603,56.958912 147.407257,57.444801 145.065704,55.884583 
	C144.666992,55.445023 144.537567,55.243034 144.287552,54.702034 
z"/>
<path fill="#FDFC01" opacity="1.000000" stroke="none" 
	d="
M248.799759,287.291962 
	C249.050049,285.297241 249.261902,283.390717 250.983231,282.797546 
	C259.194946,279.967621 263.427338,273.129639 267.893005,266.112122 
	C274.636627,259.370514 279.683411,252.042404 281.757202,242.783417 
	C283.097260,236.800476 284.642761,236.484116 289.381775,240.550323 
	C289.756256,240.871597 290.094482,241.235107 290.707184,241.804504 
	C295.892303,259.839325 290.227203,278.382629 294.729553,296.618958 
	C293.182465,302.490509 291.481842,307.930511 290.146637,313.458801 
	C289.676514,315.405304 288.914124,316.828888 286.957031,318.057434 
	C282.970856,319.490204 282.358795,316.392578 281.508514,314.317596 
	C280.253723,311.255524 279.307220,308.067780 277.461090,304.858826 
	C272.769348,297.488342 265.666901,293.871185 258.295776,290.062439 
	C258.108368,289.763153 258.081329,289.404816 258.012329,289.238892 
	C255.334259,287.073944 252.969757,288.788605 250.269806,289.746338 
	C249.800934,289.965271 249.605408,289.998230 249.192993,289.827698 
	C248.401337,289.031006 248.336517,288.337067 248.799759,287.291962 
z"/>
<path fill="#FCFCFC" opacity="1.000000" stroke="none" 
	d="
M228.162384,132.039017 
	C227.911667,131.719513 227.933792,131.630219 227.960968,131.593109 
	C227.259018,128.498474 225.722305,125.791756 224.216339,123.086845 
	C223.008759,120.917908 222.718719,118.793419 224.175049,116.229385 
	C228.305420,112.677361 232.533005,110.072876 237.957718,108.933609 
	C242.597382,108.854774 246.747696,107.999413 251.303101,107.262894 
	C254.396042,106.479965 256.887726,106.986351 259.491516,108.774033 
	C261.586334,110.244713 262.762054,112.080109 264.413147,113.951698 
	C264.930634,114.906998 265.174927,115.596260 265.269501,116.331871 
	C265.579132,115.861664 265.132599,115.493416 265.040253,114.731705 
	C264.638641,112.733086 264.069702,111.092705 264.732544,109.036575 
	C265.629761,108.268410 266.383789,108.169228 267.548828,108.441940 
	C268.111237,108.758934 268.305084,108.934258 268.708069,109.437492 
	C271.540039,115.284729 272.176910,121.444458 274.500519,127.135727 
	C274.544586,127.726837 275.369781,127.045036 274.743500,127.273514 
	C274.578613,127.333672 274.448975,127.189590 274.487854,126.856888 
	C274.850739,123.752167 273.570343,120.251892 277.008057,117.966614 
	C280.855164,125.037636 279.232788,131.400330 275.035889,137.808151 
	C273.506927,139.555069 271.395111,139.713577 269.783325,141.329681 
	C265.487427,142.460709 261.406769,141.664810 257.072388,142.593124 
	C255.913742,142.934830 255.107468,143.023361 253.948517,143.369858 
	C249.496597,144.458984 245.371811,143.983032 241.278870,143.877228 
	C238.458054,143.804337 236.521225,141.849640 234.647537,139.961533 
	C232.328003,137.624130 230.972717,134.497757 228.162384,132.039017 
z"/>
<path fill="#7D7D01" opacity="1.000000" stroke="none" 
	d="
M174.867432,265.295593 
	C183.096466,275.587921 195.505005,277.288391 206.702240,281.649384 
	C216.682053,285.536255 226.756149,286.544556 237.675262,286.165894 
	C238.133530,286.577698 238.097641,286.985565 237.845840,287.141846 
	C224.758072,295.265228 214.562134,307.348297 200.301773,314.474060 
	C196.544891,315.498749 194.519547,312.830170 191.710419,311.213837 
	C183.913345,302.565216 178.209091,293.127319 174.478973,282.435638 
	C173.435501,279.444763 173.649872,276.265961 172.128845,273.082947 
	C171.988266,270.063507 171.691452,267.190735 174.867432,265.295593 
z"/>
<path fill="#292929" opacity="1.000000" stroke="none" 
	d="
M191.409912,192.007965 
	C188.163559,189.912582 186.561752,187.601181 189.968597,184.178131 
	C190.223984,183.688904 190.408615,183.563171 190.824829,183.195312 
	C191.056412,182.953171 190.978973,182.969070 190.975113,183.007782 
	C194.719101,180.019974 199.636993,178.138596 200.994080,172.772690 
	C201.238297,171.806992 202.176331,171.465225 202.910217,171.453033 
	C205.995773,171.401718 207.653625,170.107422 209.403656,167.293869 
	C212.407776,162.464157 218.042038,162.755081 222.912079,167.500854 
	C224.040344,168.851654 224.009048,170.000031 223.247314,171.581375 
	C223.099899,173.484055 222.991531,174.499741 221.080887,175.263763 
	C214.293488,177.977905 207.532532,180.759048 201.516541,185.131485 
	C199.948029,186.271469 197.555618,187.651855 197.460510,188.841400 
	C197.102692,193.316803 194.488617,192.455490 191.409912,192.007965 
z"/>
<path fill="#272727" opacity="1.000000" stroke="none" 
	d="
M130.246567,157.871429 
	C129.295013,158.013046 128.660355,157.870331 127.702011,157.770142 
	C128.038422,155.233398 128.397476,152.647110 128.332123,149.949966 
	C128.063934,138.878555 128.366714,127.779182 126.716972,116.780556 
	C125.791519,110.610687 127.027344,104.739471 129.374298,99.151337 
	C130.232544,97.107841 131.172882,95.988457 129.538315,93.622040 
	C127.962677,91.340912 131.661575,91.382149 132.685959,90.600922 
	C134.334091,89.344002 135.703781,88.729813 134.506805,86.594017 
	C128.004395,74.991623 131.838074,65.727608 140.933395,57.588707 
	C141.912491,56.712566 142.712967,55.636810 143.881622,54.508331 
	C144.314194,54.466515 144.461441,54.570019 144.813370,54.849586 
	C146.388504,57.436123 144.192642,58.554031 143.202820,60.141235 
	C138.203598,68.157478 134.475128,76.430069 138.309204,86.115074 
	C138.878189,87.552322 139.313202,89.220665 138.491211,90.452057 
	C136.263947,93.788666 136.839417,98.277817 133.293900,101.205673 
	C130.580231,103.446602 130.080048,110.727280 132.142548,113.225380 
	C134.273438,115.806297 133.870453,118.286758 133.376480,121.140358 
	C132.538452,125.981697 131.665146,130.881042 133.589874,136.100952 
	C133.447067,143.055725 130.689590,149.319855 131.062180,156.419983 
	C130.824448,157.082977 130.693954,157.335037 130.246567,157.871429 
z"/>
<path fill="#2B2B2B" opacity="1.000000" stroke="none" 
	d="
M223.358582,171.880844 
	C222.996124,170.854919 223.008545,169.758698 223.037842,168.251678 
	C224.838745,166.391144 223.434921,164.508453 223.788406,162.537979 
	C224.991226,162.787094 226.474609,162.677811 227.357071,163.353409 
	C230.273849,165.586395 233.567413,166.125977 237.043503,166.975143 
	C242.326492,168.265717 247.372818,170.830673 252.223999,173.410385 
	C253.830215,174.264511 255.373108,174.986771 257.086487,175.499390 
	C260.567932,176.541031 260.726074,179.371262 259.639191,181.882431 
	C258.544861,184.410858 256.065186,185.358978 253.388992,183.829865 
	C250.850632,182.379562 248.301910,180.699753 246.187210,178.852219 
	C241.682617,174.916763 236.597168,174.700424 231.378906,175.390869 
	C227.749908,175.871063 225.499710,174.676819 223.358582,171.880844 
z"/>
<path fill="#1D1D1D" opacity="1.000000" stroke="none" 
	d="
M273.980682,138.411789 
	C277.654053,132.112228 279.180878,125.817421 276.963562,118.535873 
	C276.581207,117.656662 276.436920,117.130829 276.688538,116.159607 
	C279.137360,114.393173 281.607544,114.201202 284.531616,114.771797 
	C286.768463,116.324562 285.847015,118.294930 285.913971,119.975494 
	C286.116638,125.060799 285.738586,130.191193 287.867676,135.038574 
	C289.043549,137.715790 288.469299,140.230667 286.433075,142.767761 
	C285.365173,143.591568 284.538422,143.791565 283.225769,143.280914 
	C281.524292,140.394211 280.212616,137.721817 278.793365,134.830200 
	C277.727234,136.196457 276.713165,137.495956 275.364014,138.905243 
	C274.585205,139.220291 274.216156,139.127747 273.980682,138.411789 
z"/>
<path fill="#121212" opacity="1.000000" stroke="none" 
	d="
M225.325104,115.909637 
	C223.624435,119.252464 224.407944,121.778351 225.999619,124.474495 
	C227.202713,126.512405 228.604095,128.582169 228.425507,131.318024 
	C225.002121,128.586594 224.266678,124.165459 220.946152,121.272011 
	C218.018814,118.721169 215.439468,118.198700 212.016083,120.590515 
	C208.557831,122.426277 208.578659,125.600586 208.208282,128.418549 
	C207.925629,130.569168 207.701248,132.627106 206.069092,134.658936 
	C205.607666,135.037766 205.358429,135.118454 204.813904,134.940582 
	C203.398697,132.600418 203.866516,130.488068 204.382477,128.368179 
	C206.523438,119.571510 206.520691,119.570839 198.882751,114.919876 
	C198.761734,114.271889 198.832230,113.994469 199.242294,113.438812 
	C207.787933,113.113251 215.987717,113.220016 224.550690,114.405815 
	C225.107620,114.919167 225.267502,115.186470 225.325104,115.909637 
z"/>
<path fill="#040404" opacity="1.000000" stroke="none" 
	d="
M284.819519,114.617500 
	C282.603149,115.557228 280.346039,116.370216 277.512024,115.943718 
	C275.303009,116.502220 275.396729,114.936630 274.848755,113.676132 
	C274.706879,113.141640 274.649658,112.931984 274.485352,112.423004 
	C274.281738,111.939240 274.185242,111.754807 273.903992,111.324142 
	C272.228516,109.630966 270.001007,110.642609 268.152405,109.320496 
	C267.167053,109.110779 266.451172,109.071068 265.376953,109.041794 
	C263.546600,109.297150 262.032654,109.319542 260.307129,109.958115 
	C257.639313,109.435555 255.668808,107.151558 252.517960,108.540108 
	C251.987503,108.397453 251.829422,108.131783 251.743378,107.407005 
	C254.266037,103.426514 257.993439,104.974831 261.693115,104.534592 
	C265.236786,104.548515 268.380981,104.077354 271.660492,105.862267 
	C275.127563,106.421967 278.223022,106.703033 281.741028,106.970764 
	C285.172119,108.628105 283.605255,111.918327 284.819519,114.617500 
z"/>
<path fill="#1D1D1D" opacity="1.000000" stroke="none" 
	d="
M233.116608,206.134567 
	C230.952835,205.495270 228.930786,205.005997 226.476639,205.394379 
	C223.764435,205.823608 220.857727,204.916031 221.125381,200.606323 
	C225.139999,199.770081 229.135986,199.305008 233.566071,198.919861 
	C234.705643,199.620575 234.979385,200.408066 234.811462,201.644897 
	C234.686935,202.360199 234.651581,202.762299 234.588531,203.465881 
	C234.309875,204.417465 233.948563,205.003418 233.330505,205.838867 
	C233.137512,206.125397 233.116165,206.122375 233.116608,206.134567 
z"/>
<path fill="#1D1D1D" opacity="1.000000" stroke="none" 
	d="
M228.062164,132.063293 
	C228.284409,131.066849 228.905563,130.710129 229.486649,131.199005 
	C230.092636,131.708832 230.596008,132.431259 230.930969,133.158905 
	C235.498764,143.081787 243.649124,144.309235 253.592209,142.312164 
	C254.162354,142.549301 254.265625,142.837494 254.169739,143.539459 
	C249.163605,145.573761 244.184937,145.024872 239.276138,144.946121 
	C236.727112,144.905212 234.684219,142.962936 233.508224,141.023148 
	C231.762497,138.143616 229.087753,135.810211 228.062164,132.063293 
z"/>
<path fill="#E0E0E0" opacity="1.000000" stroke="none" 
	d="
M258.556763,54.938568 
	C257.679260,55.391235 259.141327,58.327866 256.296387,56.996643 
	C253.902283,55.876381 251.179382,55.446102 248.935837,53.383308 
	C250.003479,52.102219 251.246872,52.120148 252.788849,53.110229 
	C253.265305,53.409122 253.431870,53.466251 253.494568,53.850914 
	C254.605164,54.020977 255.767181,53.992199 257.196289,54.806694 
	C257.797577,54.706936 258.082581,54.649189 258.556763,54.938568 
z"/>
<path fill="#1D1D1D" opacity="1.000000" stroke="none" 
	d="
M256.007202,142.491119 
	C260.367004,141.602203 264.655914,141.088593 269.377228,140.482910 
	C269.984222,140.606552 270.158752,140.822250 270.149475,141.411407 
	C266.119812,143.176544 262.093170,143.048904 257.659058,143.249695 
	C256.670746,143.511780 256.243164,143.366379 256.007202,142.491119 
z"/>
<path fill="#363636" opacity="1.000000" stroke="none" 
	d="
M270.302979,141.712250 
	C269.926819,141.553970 269.887878,141.323074 269.829315,140.741516 
	C270.550934,138.878693 272.208221,138.948929 273.740906,138.187042 
	C274.159912,138.382538 274.355316,138.616150 274.827393,138.901001 
	C274.460510,141.385620 272.148682,140.840973 270.302979,141.712250 
z"/>
<path fill="#7D7D7D" opacity="1.000000" stroke="none" 
	d="
M235.098419,201.987625 
	C233.595581,201.488052 234.062881,200.479813 233.974579,199.333801 
	C235.117920,198.776093 236.244247,198.717651 236.733017,199.998840 
	C237.149475,201.090485 236.505615,201.723099 235.098419,201.987625 
z"/>
<path fill="#272727" opacity="1.000000" stroke="none" 
	d="
M282.931183,143.423569 
	C283.656403,143.044739 284.476807,143.022873 285.707672,143.005737 
	C285.929718,144.051575 286.492310,145.583206 285.152588,145.939499 
	C283.683777,146.330093 283.894440,144.378326 282.931183,143.423569 
z"/>
<path fill="#7D7D7D" opacity="1.000000" stroke="none" 
	d="
M253.293213,53.158085 
	C251.923340,53.296783 250.810410,53.058575 249.273041,52.925537 
	C248.848572,53.030716 248.919678,52.995068 248.930084,53.033455 
	C248.795929,52.801163 248.651398,52.530487 248.736084,51.860680 
	C248.965317,51.461544 248.833481,51.361641 248.855164,51.281929 
	C250.829865,50.558727 252.228165,51.557060 253.293213,53.158085 
z"/>
<path fill="#3D3D3D" opacity="1.000000" stroke="none" 
	d="
M257.401794,54.608772 
	C256.369843,55.368225 255.251282,55.002777 253.798264,54.275146 
	C254.864426,51.438942 256.035095,52.950958 257.401794,54.608772 
z"/>
<path fill="#757575" opacity="1.000000" stroke="none" 
	d="
M255.829071,142.015259 
	C256.302887,142.400772 256.527649,142.685699 256.985657,143.136810 
	C256.587738,144.264740 255.573441,144.043625 254.314987,144.042603 
	C253.991104,143.671494 254.011612,143.389786 254.045624,142.684601 
	C254.566071,142.145645 255.073029,142.030167 255.829071,142.015259 
z"/>
<path fill="#7D7D7D" opacity="1.000000" stroke="none" 
	d="
M233.499390,206.116455 
	C232.841614,205.170547 233.080811,204.388275 234.225739,203.778702 
	C235.181335,204.802628 234.917664,205.573547 233.499390,206.116455 
z"/>
<path fill="#9C9C9C" opacity="1.000000" stroke="none" 
	d="
M262.049988,227.987305 
	C262.096619,226.914963 262.358002,225.736801 263.559021,226.356003 
	C264.369354,226.773773 263.951355,227.705200 262.822723,228.187973 
	C262.523193,228.211868 262.171143,228.122574 262.049988,227.987305 
z"/>
<path fill="#1D1D1D" opacity="1.000000" stroke="none" 
	d="
M289.675659,138.685501 
	C289.385559,138.671509 289.322662,138.468246 289.259766,138.264984 
	C289.474121,138.342056 289.688507,138.419144 289.675659,138.685501 
z"/>
<path fill="#E0E0E0" opacity="1.000000" stroke="none" 
	d="
M374.659821,376.550110 
	C374.156403,361.394318 374.034546,345.805328 374.143219,330.218018 
	C374.165222,327.061432 372.952148,325.321045 370.581116,323.317566 
	C363.378754,317.231750 354.614288,313.355621 347.582275,306.506042 
	C347.664551,306.013489 347.938965,305.832336 348.689636,305.779663 
	C358.574402,311.078430 367.094574,317.579773 375.857269,323.718048 
	C376.984344,324.507538 376.943481,325.688324 376.948212,326.851776 
	C377.015015,343.298645 376.717255,359.732178 374.659821,376.550110 
z"/>
<path fill="#E0E0E0" opacity="1.000000" stroke="none" 
	d="
M425.571442,291.279541 
	C425.831299,288.580353 425.907288,286.232330 426.063751,283.450562 
	C426.389557,282.671600 426.720367,282.538483 427.339478,282.831268 
	C427.478943,290.393280 427.415436,297.741028 427.245300,305.547546 
	C426.500305,306.564880 425.772705,306.718781 424.657288,306.236145 
	C421.815948,295.129089 420.742767,284.120667 420.878784,272.979401 
	C420.953796,266.837280 420.895081,260.693207 421.010437,254.552139 
	C421.039154,253.021927 420.463806,251.183350 423.366302,249.454849 
	C421.986084,263.518738 422.246002,276.879486 423.878052,290.596069 
	C425.840454,294.072937 425.450134,297.462616 425.453979,300.525665 
	C426.079041,297.746796 424.700623,294.689270 425.571442,291.279541 
z"/>
<path fill="#DADADA" opacity="1.000000" stroke="none" 
	d="
M424.390167,306.389130 
	C425.050629,305.992828 425.746643,305.999695 426.790680,306.006409 
	C428.465271,318.028961 429.791840,330.051636 431.124207,342.531677 
	C430.958282,343.103821 430.786560,343.218628 430.372192,343.140747 
	C427.105957,331.073151 426.096466,318.880554 424.390167,306.389130 
z"/>
<path fill="#DADADA" opacity="1.000000" stroke="none" 
	d="
M337.315735,282.136414 
	C336.920715,285.620209 337.246704,288.754852 336.272827,291.797363 
	C335.055359,295.600769 338.775848,296.542053 340.560425,298.479919 
	C341.482361,299.481018 343.124847,299.862152 343.949585,301.584961 
	C344.136536,302.231110 344.229401,302.548798 344.052368,303.283203 
	C334.012421,298.979828 333.643555,290.868073 336.022705,281.425232 
	C336.771973,280.919769 337.185699,281.155273 337.315735,282.136414 
z"/>
<path fill="#CCCCCC" opacity="1.000000" stroke="none" 
	d="
M427.699646,282.642273 
	C427.542511,283.045502 427.076355,283.080444 427.076355,283.080444 
	C427.076355,283.080444 426.611084,283.035187 426.377655,283.026001 
	C426.746094,277.226318 425.904175,271.184204 428.938904,265.801971 
	C429.254181,271.356812 428.882355,276.823456 427.699646,282.642273 
z"/>
<path fill="#E0E0E0" opacity="1.000000" stroke="none" 
	d="
M450.457611,286.187439 
	C450.327118,281.823730 451.754517,278.031464 453.567810,274.103668 
	C454.144470,273.843964 454.394226,273.735077 454.984070,273.852844 
	C454.287231,277.809814 453.994354,281.758301 451.954041,285.596039 
	C451.548645,286.326111 451.163635,286.476166 450.457611,286.187439 
z"/>
<path fill="#CCCCCC" opacity="1.000000" stroke="none" 
	d="
M455.581909,307.767395 
	C455.698486,308.438202 455.509521,308.889130 455.329681,309.343658 
	C454.690125,310.960266 453.739166,312.516205 451.876923,312.449707 
	C449.543427,312.366455 450.442078,309.979309 449.753021,308.696808 
	C449.328644,307.906891 448.458710,307.059265 449.540283,306.179474 
	C451.850708,304.997345 450.568024,310.185059 453.610474,308.093597 
	C454.314789,307.636353 454.769073,307.502502 455.581909,307.767395 
z"/>
<path fill="#CCCCCC" opacity="1.000000" stroke="none" 
	d="
M455.594788,273.871429 
	C455.085480,274.063507 454.846771,274.047455 454.251404,273.992157 
	C454.813507,270.970123 454.315063,267.244965 458.526978,265.713257 
	C458.904938,265.849854 458.922302,266.071564 458.962463,266.626099 
	C458.045624,269.240387 455.976654,270.996338 455.594788,273.871429 
z"/>
<path fill="#CCCCCC" opacity="1.000000" stroke="none" 
	d="
M337.492859,282.224030 
	C337.035645,282.164246 336.841400,281.795837 336.402954,281.231934 
	C336.878021,278.297882 336.571930,275.342346 338.068237,272.380371 
	C338.439758,271.913391 338.658264,271.801941 339.193878,271.877167 
	C339.078796,275.374939 339.060272,278.759705 337.492859,282.224030 
z"/>
<path fill="#BBBBBB" opacity="1.000000" stroke="none" 
	d="
M450.097961,286.413696 
	C450.580933,285.963989 450.944244,285.971497 451.580048,285.973511 
	C450.253143,291.394562 451.655334,297.068024 449.978302,302.542175 
	C449.978302,297.318420 449.978302,292.094666 450.097961,286.413696 
z"/>
<path fill="#363636" opacity="1.000000" stroke="none" 
	d="
M425.463684,290.947021 
	C425.755310,294.546692 425.755310,298.165009 425.755310,301.783356 
	C425.674164,301.801208 425.593018,301.819092 425.511871,301.836945 
	C424.980774,298.502441 424.449646,295.167969 423.964111,291.414917 
	C424.397156,290.986115 424.784607,290.975891 425.463684,290.947021 
z"/>
<path fill="#BBBBBB" opacity="1.000000" stroke="none" 
	d="
M343.874146,303.976715 
	C343.823914,303.401855 343.865417,303.103821 343.975311,302.359619 
	C346.119812,302.383270 347.773804,303.467224 349.048584,305.590729 
	C348.871124,305.963196 348.576355,306.018311 347.835815,306.134003 
	C345.882294,306.193909 344.828278,305.392700 343.874146,303.976715 
z"/>
<path fill="#9C9C9C" opacity="1.000000" stroke="none" 
	d="
M444.121582,404.507446 
	C443.802643,404.887207 443.483002,404.877441 442.685394,404.907959 
	C442.020630,404.502991 441.743561,404.073181 441.664459,403.609589 
	C441.447784,402.340027 439.696381,400.591461 441.844360,399.940460 
	C443.392242,399.471252 442.865387,401.875610 443.709015,402.735199 
	C444.006836,403.038605 443.992645,403.648193 444.121582,404.507446 
z"/>
<path fill="#7D7D7D" opacity="1.000000" stroke="none" 
	d="
M373.911163,377.254364 
	C374.196960,376.982697 374.500275,376.845825 374.665802,376.862946 
	C374.521423,379.429779 374.211517,381.979462 373.901611,384.529175 
	C372.781158,382.136993 373.023865,379.828644 373.911163,377.254364 
z"/>
<path fill="#E0E0E0" opacity="1.000000" stroke="none" 
	d="
M456.057343,307.749390 
	C455.448395,307.987366 455.013550,307.989136 454.252563,307.984650 
	C454.778229,306.081909 455.523315,304.118561 457.543365,302.633331 
	C457.922119,302.820343 457.964783,303.117676 458.095276,303.856934 
	C458.439423,304.669250 458.514252,305.076660 458.214355,305.757324 
	C457.408661,306.503326 456.820038,307.008240 456.057343,307.749390 
z"/>
<path fill="#CCCCCC" opacity="1.000000" stroke="none" 
	d="
M446.861206,389.417603 
	C445.216858,388.088165 444.061768,386.810760 442.767822,385.379761 
	C445.491119,384.510040 446.176483,386.416016 447.253906,388.163025 
	C447.350464,388.813568 447.350464,389.141571 446.861206,389.417603 
z"/>
<path fill="#E0E0E0" opacity="1.000000" stroke="none" 
	d="
M451.050812,392.623779 
	C450.857666,393.007660 450.641113,393.048492 450.094360,393.074768 
	C448.686890,392.041870 447.609680,391.023499 446.452209,389.685364 
	C446.549561,389.235107 446.727173,389.104614 447.127625,388.729797 
	C449.261017,389.087067 450.329224,390.504669 451.050812,392.623779 
z"/>
<path fill="#BBBBBB" opacity="1.000000" stroke="none" 
	d="
M441.615875,396.334656 
	C441.941223,398.511169 441.116699,398.779480 440.066742,397.514191 
	C439.192230,396.460388 438.117889,394.691254 439.569397,393.764038 
	C440.587036,393.114014 441.127655,394.884369 441.615875,396.334656 
z"/>
<path fill="#BBBBBB" opacity="1.000000" stroke="none" 
	d="
M339.672150,271.748810 
	C339.295685,272.069275 339.080353,272.074707 338.543121,272.052490 
	C338.592499,270.480835 338.963806,268.936829 339.377411,267.216705 
	C340.548248,268.678467 339.956482,270.077942 339.672150,271.748810 
z"/>
<path fill="#9C9C9C" opacity="1.000000" stroke="none" 
	d="
M430.097473,343.302917 
	C430.296539,342.948639 430.463531,342.949249 430.880249,342.969482 
	C432.270416,343.942139 432.442627,345.102722 431.669769,347.044800 
	C431.013580,345.659515 430.539459,344.658661 430.097473,343.302917 
z"/>
<path fill="#3D3D3D" opacity="1.000000" stroke="none" 
	d="
M458.271759,306.027985 
	C458.056122,305.622223 458.114990,305.246063 458.178467,304.584351 
	C459.306335,303.908264 459.744080,304.415985 459.695557,305.807983 
	C459.277710,306.101379 458.911957,306.079468 458.271759,306.027985 
z"/>
<path fill="#747401" opacity="1.000000" stroke="none" 
	d="
M191.476883,311.280762 
	C194.459213,310.662476 196.148178,313.620544 199.235809,314.002441 
	C206.533051,317.710876 213.569839,321.236389 221.010986,324.609375 
	C219.491165,330.135834 215.494400,328.524811 212.796844,326.936035 
	C208.049759,324.140167 202.688873,323.227356 197.452454,320.998993 
	C196.653488,317.065521 193.438553,314.713989 191.476883,311.280762 
z"/>
<path fill="#E0E0E0" opacity="1.000000" stroke="none" 
	d="
M150.258392,369.188904 
	C151.076797,362.630646 154.349533,357.027252 157.040207,351.367371 
	C159.417145,346.367432 159.678162,343.070801 154.748413,339.731262 
	C154.727417,339.159088 154.811920,338.925079 155.167114,338.434204 
	C162.731644,341.551758 162.459244,341.472504 160.136307,349.457153 
	C158.201630,356.107300 154.739151,362.008118 151.889771,368.611023 
	C151.420792,369.305054 151.019867,369.450073 150.258392,369.188904 
z"/>
<path fill="#DADADA" opacity="1.000000" stroke="none" 
	d="
M150.878143,398.381622 
	C146.454254,394.713745 145.972382,389.337860 143.437286,385.066498 
	C142.620407,383.690216 144.691986,382.948059 145.001007,381.347168 
	C145.488251,380.674316 145.924515,380.528564 146.710632,380.778870 
	C144.480667,387.646881 150.206512,391.864685 151.874023,397.658325 
	C151.720093,398.211029 151.494202,398.405365 150.878143,398.381622 
z"/>
<path fill="#BBBBBB" opacity="1.000000" stroke="none" 
	d="
M147.263428,380.759583 
	C146.581223,380.991425 146.164978,380.983307 145.437088,380.999908 
	C146.544586,377.147949 147.963730,373.271301 149.678986,369.195496 
	C150.367935,368.979095 150.760742,368.961884 151.449005,368.945557 
	C150.339417,372.804199 148.934402,376.661926 147.263428,380.759583 
z"/>
<path fill="#BBBBBB" opacity="1.000000" stroke="none" 
	d="
M141.961884,330.844147 
	C145.173462,331.213501 146.521561,333.917206 149.197235,335.150513 
	C149.459122,335.634155 149.439316,335.953735 148.942398,336.328491 
	C146.151184,335.280670 143.562454,334.602417 141.911743,331.960632 
	C141.695190,331.416992 141.627625,331.155640 141.961884,330.844147 
z"/>
<path fill="#E0E0E0" opacity="1.000000" stroke="none" 
	d="
M150.505096,398.524292 
	C150.730652,398.135803 150.973328,398.108093 151.580994,398.048523 
	C152.999619,399.777069 154.053253,401.537445 155.082184,403.656525 
	C154.855255,404.125702 154.653061,404.236237 154.125427,404.230347 
	C152.534775,402.479187 150.825012,401.123138 150.505096,398.524292 
z"/>
<path fill="#DADADA" opacity="1.000000" stroke="none" 
	d="
M141.861237,331.422119 
	C139.845398,331.285400 138.252167,330.347107 136.865662,328.519165 
	C136.709152,327.959900 136.681564,327.725586 137.001862,327.426392 
	C138.899948,328.310669 140.450165,329.259857 142.182037,330.501526 
	C142.229050,330.917969 142.094376,331.041931 141.861237,331.422119 
z"/>
<path fill="#9C9C9C" opacity="1.000000" stroke="none" 
	d="
M167.555984,424.166412 
	C168.012314,425.010376 167.999222,426.169556 167.649017,426.055695 
	C166.368958,425.639465 165.287949,424.555603 166.096573,423.152313 
	C166.520950,422.415863 166.968765,423.557343 167.555984,424.166412 
z"/>
<path fill="#BBBBBB" opacity="1.000000" stroke="none" 
	d="
M158.422104,408.855225 
	C156.441467,409.994659 156.441467,409.994659 156.302170,406.080109 
	C157.047684,407.110596 157.593292,407.864777 158.422104,408.855225 
z"/>
<path fill="#9C9C9C" opacity="1.000000" stroke="none" 
	d="
M127.139343,322.376587 
	C128.168503,322.322845 129.743790,321.458954 130.309952,323.198517 
	C130.371750,323.388428 130.139236,323.875946 129.989639,323.900635 
	C128.859619,324.087158 127.786659,324.024109 127.139343,322.376587 
z"/>
<path fill="#E0E0E0" opacity="1.000000" stroke="none" 
	d="
M133.792694,326.609924 
	C132.694321,325.748810 129.690689,326.141541 130.817276,323.936829 
	C131.457764,322.683411 132.995728,324.098969 134.070557,325.362732 
	C134.173187,325.953857 134.101868,326.164734 133.792694,326.609924 
z"/>
<path fill="#E0E0E0" opacity="1.000000" stroke="none" 
	d="
M151.814514,337.156799 
	C153.000076,337.174713 153.944016,337.548370 155.162903,338.049683 
	C155.317841,338.388123 155.197845,338.598938 154.860382,339.101410 
	C153.825043,339.215393 153.007172,339.037720 152.015778,338.594727 
	C151.752472,338.057129 151.662689,337.784851 151.814514,337.156799 
z"/>
<path fill="#CCCCCC" opacity="1.000000" stroke="none" 
	d="
M151.931137,336.510071 
	C152.019684,337.055664 151.983215,337.310303 151.894501,337.947144 
	C150.869781,337.841309 149.897293,337.353210 148.695038,336.624390 
	C148.648575,336.219360 148.831863,336.055054 149.247040,335.602661 
	C150.254669,335.616058 151.030411,335.917572 151.931137,336.510071 
z"/>
<path fill="#BBBBBB" opacity="1.000000" stroke="none" 
	d="
M134.837097,326.418579 
	C135.658813,326.338593 136.329559,326.629120 137.175018,327.140564 
	C137.274628,327.520203 137.199524,327.678894 136.930573,328.015869 
	C136.246811,328.102875 135.756912,328.011566 135.094330,327.737000 
	C134.843155,327.298889 134.764633,327.044006 134.837097,326.418579 
z"/>
<path fill="#9C9C9C" opacity="1.000000" stroke="none" 
	d="
M160.443756,415.580505 
	C159.986221,414.649963 159.917496,413.890045 160.642120,413.825684 
	C161.045517,413.789856 161.763748,414.442688 161.903244,414.914307 
	C162.156555,415.770844 161.866745,416.458771 160.443756,415.580505 
z"/>
<path fill="#CCCCCC" opacity="1.000000" stroke="none" 
	d="
M126.986572,322.015076 
	C125.941010,322.318542 125.211838,322.007233 124.762520,320.978851 
	C124.457726,320.281219 125.029930,320.111816 125.367271,320.063477 
	C126.220039,319.941406 126.825928,320.395264 127.103470,321.588989 
	C127.051804,321.981628 126.990021,321.984375 126.986572,322.015076 
z"/>
<path fill="#BBBBBB" opacity="1.000000" stroke="none" 
	d="
M153.916443,404.411194 
	C154.010101,404.104279 154.220215,404.094635 154.743896,404.050110 
	C155.235443,405.014069 154.736969,405.013184 153.916443,404.411194 
z"/>
<path fill="#9C9C9C" opacity="1.000000" stroke="none" 
	d="
M168.593811,427.257019 
	C168.661530,427.365814 168.427902,427.452545 168.427902,427.452545 
	C168.427902,427.452545 168.526093,427.148193 168.593811,427.257019 
z"/>
<path fill="#E0E0E0" opacity="1.000000" stroke="none" 
	d="
M134.823425,325.920044 
	C134.972763,326.298798 134.957443,326.549469 134.931915,327.176971 
	C134.600342,327.426758 134.279007,327.299744 133.756256,327.008484 
	C133.655807,326.651947 133.756790,326.459686 134.051147,326.005188 
	C134.244507,325.742981 134.658768,325.792023 134.823425,325.920044 
z"/>
<path fill="#FCFB01" opacity="1.000000" stroke="none" 
	d="
M221.559113,324.945038 
	C213.447769,322.848236 206.147903,319.859528 199.752625,314.329285 
	C206.675812,308.655853 214.838531,304.804657 221.117966,298.269226 
	C225.826965,293.368225 231.579453,289.776886 237.871445,286.435547 
	C240.440201,285.873322 242.498459,286.653900 244.761536,287.819763 
	C245.877701,288.934601 246.772079,289.768188 246.142853,291.438721 
	C245.889633,291.695496 245.868362,291.943115 245.951050,292.035858 
	C245.409500,292.635895 244.693954,292.937500 243.641022,293.143982 
	C243.047012,293.335938 242.741165,293.500732 242.321945,293.940186 
	C241.941803,294.643738 241.720474,295.136932 241.193726,295.752716 
	C236.105942,300.383453 234.141479,306.320312 232.344452,312.741760 
	C230.761276,315.647430 229.298721,318.220947 228.085403,320.907043 
	C226.856476,323.627747 225.056870,325.227020 221.559113,324.945038 
z"/>
<path fill="#161616" opacity="1.000000" stroke="none" 
	d="
M258.109772,290.117554 
	C266.558594,291.525330 272.619110,296.756317 277.790405,303.646576 
	C277.439850,305.101562 276.706848,305.866455 275.290802,306.137421 
	C269.360870,300.831268 263.736023,295.651611 258.109772,290.117554 
z"/>
<path fill="#121212" opacity="1.000000" stroke="none" 
	d="
M265.530273,325.375977 
	C267.410217,326.179504 269.392273,326.873413 269.446350,328.606445 
	C269.518921,330.933594 266.989410,329.379547 265.995575,330.207062 
	C263.454926,332.322571 259.537140,331.311523 257.396057,334.756775 
	C256.809875,326.678223 255.618668,327.060364 265.530273,325.375977 
z"/>
<path fill="#121212" opacity="1.000000" stroke="none" 
	d="
M241.750763,292.374817 
	C243.056259,292.177826 244.134491,292.094849 245.623245,292.070251 
	C247.706451,296.069153 250.179276,292.887360 252.242355,292.728668 
	C253.777390,292.610596 255.744843,290.961731 256.579041,293.054626 
	C257.453796,295.249268 254.781372,295.310333 253.566193,296.201569 
	C249.495255,299.187225 245.277115,297.407043 241.031433,296.239258 
	C241.011124,295.170563 241.049484,294.420776 241.215973,293.317810 
	C241.403900,292.806061 241.463715,292.647461 241.750763,292.374817 
z"/>
<path fill="#747401" opacity="1.000000" stroke="none" 
	d="
M274.960388,306.317932 
	C275.720398,305.335022 276.455078,304.659149 277.500427,303.984131 
	C280.055878,306.417725 281.290863,309.324738 282.146820,312.500153 
	C282.747253,314.727509 282.849091,317.475220 286.254669,318.193665 
	C284.979980,320.855621 283.455109,320.043182 282.081390,318.029816 
	C279.861145,314.775757 277.708008,311.475922 275.218445,308.023743 
	C274.918579,307.442993 274.926788,307.033936 274.960388,306.317932 
z"/>
<path fill="#121212" opacity="1.000000" stroke="none" 
	d="
M271.585114,324.213013 
	C268.775116,324.610748 267.637543,323.339417 268.231476,320.858643 
	C268.468109,319.870331 268.983002,317.981781 270.253357,318.648224 
	C272.192810,319.665588 272.216705,321.878235 271.585114,324.213013 
z"/>
<path fill="#E1E000" opacity="1.000000" stroke="none" 
	d="
M250.402573,289.925751 
	C252.093719,287.184204 254.483734,285.974304 257.762939,288.780762 
	C255.425705,288.179504 253.143784,289.273438 250.402573,289.925751 
z"/>
<path fill="#E1E000" opacity="1.000000" stroke="none" 
	d="
M246.218292,291.730652 
	C245.596390,290.704926 245.303146,289.714355 244.999023,288.411285 
	C246.231323,288.359375 247.441727,288.422729 248.758789,287.258301 
	C249.040024,287.657898 249.053299,288.315430 249.021332,289.298584 
	C248.166382,290.338043 247.356659,291.051941 246.218292,291.730652 
z"/>
<path fill="#161616" opacity="1.000000" stroke="none" 
	d="
M252.964066,326.643005 
	C251.227020,327.018646 250.232574,325.840088 249.141129,324.297668 
	C250.788589,323.936859 252.415894,324.149750 252.964066,326.643005 
z"/>
<path fill="#161616" opacity="1.000000" stroke="none" 
	d="
M248.997787,324.002441 
	C248.079208,323.884094 247.068909,323.897034 246.765259,322.748535 
	C246.725906,322.599731 247.052521,322.202484 247.252350,322.168030 
	C248.176285,322.008728 248.690552,322.518250 248.965393,323.682465 
	C249.004272,323.995117 249.000000,324.000000 248.997787,324.002441 
z"/>
<path fill="#161616" opacity="1.000000" stroke="none" 
	d="
M253.007935,326.992065 
	C253.447449,327.113953 253.880157,327.242584 254.312866,327.371185 
	C253.990219,328.064209 253.614380,327.712921 253.116348,327.219604 
	C252.990891,327.013428 253.001099,326.998840 253.007935,326.992065 
z"/>
<path fill="#FDFDFD" opacity="1.000000" stroke="none" 
	d="
M198.706192,114.594444 
	C205.790131,115.491608 207.637100,117.709259 206.620392,124.352623 
	C206.121063,127.615280 205.262695,130.822998 204.483185,134.470001 
	C204.702637,135.399658 204.755066,135.929138 204.314362,136.695282 
	C204.326813,137.403229 204.515213,137.892624 204.845673,138.620605 
	C202.726807,140.991592 202.704102,144.586517 199.683563,146.656281 
	C188.089630,150.101501 176.615555,151.652100 164.912903,151.292664 
	C160.131821,151.145844 156.467728,148.821777 154.902542,144.309662 
	C153.487671,140.230820 151.393311,136.394104 150.371216,131.747864 
	C149.013779,123.713242 149.120895,123.695534 156.787460,119.730896 
	C158.483261,118.853928 159.665268,117.106209 161.498062,116.154968 
	C167.172852,113.209755 173.391815,113.365036 179.870239,112.639679 
	C186.315659,113.119537 192.595001,111.075386 198.706192,114.594444 
z"/>
<path fill="#070707" opacity="1.000000" stroke="none" 
	d="
M180.196518,113.530029 
	C173.758179,114.961655 167.414932,114.550713 161.347031,117.515839 
	C158.609268,118.853661 158.915833,121.661453 156.484467,122.676498 
	C156.187378,121.816811 155.895935,120.973488 155.616013,120.163506 
	C151.234314,122.174538 149.670654,125.486427 151.013458,130.544861 
	C150.686188,131.337433 150.218063,131.486572 149.375565,131.196686 
	C147.407806,129.998077 148.668884,126.018356 144.679688,127.109222 
	C143.553879,127.519951 142.606522,127.919991 142.367447,128.649109 
	C139.993683,135.888458 135.173279,142.172363 134.212677,149.984177 
	C133.873184,152.744766 134.409714,156.178986 130.339417,157.206451 
	C129.393372,150.037750 131.067978,143.416885 132.915619,136.427490 
	C133.185059,130.432877 135.803192,125.515244 137.984604,120.599365 
	C139.498962,117.186707 143.763626,117.942131 147.340744,117.216484 
	C149.871033,116.631607 152.212311,116.966858 154.511902,115.476112 
	C156.197495,114.480530 157.671585,113.996307 159.603760,113.642632 
	C164.405334,112.585510 168.909424,112.108147 173.738052,111.106277 
	C175.818542,110.711159 177.492157,110.593346 179.512177,111.396927 
	C180.293839,112.049889 180.474686,112.569473 180.196518,113.530029 
z"/>
<path fill="#161616" opacity="1.000000" stroke="none" 
	d="
M129.994690,157.281052 
	C133.214539,155.764328 132.820633,152.658463 132.861450,150.335861 
	C132.922668,146.851440 133.961517,143.892441 135.519333,140.923645 
	C137.126892,137.860031 138.673019,134.794601 139.512482,131.346878 
	C139.959839,129.509567 140.509506,126.900497 143.914124,127.111176 
	C141.568848,133.446472 142.099442,140.198151 141.777588,146.785660 
	C141.445328,153.586243 141.703735,160.415665 141.703735,167.905273 
	C137.807007,164.810989 136.494629,158.562469 130.197418,158.386856 
	C129.945602,157.961487 129.961533,157.767212 129.994690,157.281052 
z"/>
<path fill="#1D1D1D" opacity="1.000000" stroke="none" 
	d="
M149.138519,131.351135 
	C149.516861,130.974457 149.965500,130.980804 150.750671,130.982483 
	C152.721283,135.216675 154.394943,139.440826 155.976959,143.699036 
	C157.254196,147.136917 159.312820,149.500671 163.203918,149.994034 
	C171.744446,151.076889 180.122986,149.480835 188.438431,148.140793 
	C191.991577,147.568192 195.558304,146.697083 199.552521,146.081955 
	C200.412872,145.736374 200.798294,145.836517 201.041016,146.620300 
	C199.314407,150.178040 196.007309,149.157135 193.449982,149.601959 
	C185.494568,150.985703 177.494537,152.362320 169.454041,152.946213 
	C158.674835,153.729004 155.638275,151.443741 151.929565,141.230164 
	C150.808441,138.142624 150.104080,134.903748 149.138519,131.351135 
z"/>
<path fill="#2B2B2B" opacity="1.000000" stroke="none" 
	d="
M201.333649,146.877319 
	C200.789536,146.704910 200.593613,146.441193 200.169006,146.074509 
	C201.362213,143.607956 201.441025,140.421570 204.625336,138.887436 
	C204.068130,141.577530 205.149750,145.130478 201.333649,146.877319 
z"/>
<path fill="#272721" opacity="1.000000" stroke="none" 
	d="
M204.431595,136.880356 
	C204.116562,136.380447 204.094727,135.847076 204.236221,135.099060 
	C204.642944,134.888901 204.886337,134.893356 205.493332,134.927460 
	C205.788315,135.771988 205.573166,136.499115 204.431595,136.880356 
z"/>
<path fill="#FFFFFF" opacity="1.000000" stroke="none" 
	d="
M190.893951,183.105713 
	C190.924362,183.253357 190.746521,183.523376 190.281128,183.788940 
	C190.247726,183.601395 190.478439,183.415939 190.893951,183.105713 
z"/>
<path fill="#FDFDFD" opacity="1.000000" stroke="none" 
	d="
M180.262634,112.694160 
	C178.161118,112.588776 176.449860,112.592583 174.308624,112.574402 
	C173.537582,112.107346 173.363647,111.605095 173.453079,110.654495 
	C175.543137,108.040237 178.224670,108.059189 180.864349,108.153534 
	C185.131622,108.306068 188.976486,106.863541 192.726776,105.123383 
	C194.259308,104.412277 195.568451,103.227684 195.229538,101.268761 
	C194.902802,99.380096 193.168991,99.341423 191.753906,99.053078 
	C186.846497,98.053108 181.901031,98.126831 176.959213,98.739037 
	C175.156677,98.962334 173.377426,99.380325 171.156097,98.976074 
	C170.517868,98.768532 170.270020,98.657227 169.693130,98.299301 
	C167.478867,95.959534 166.128555,93.491920 164.552719,91.182121 
	C162.874619,88.722420 162.312241,86.004898 163.177628,83.179329 
	C164.146011,80.017525 164.424850,76.719337 165.572388,73.173317 
	C166.843414,71.629066 168.185059,70.849770 169.680191,70.805153 
	C180.191864,70.491531 190.717010,69.615936 201.590729,71.551437 
	C204.969589,71.904396 207.957581,71.984909 210.945618,72.063591 
	C217.491989,72.235985 222.873489,73.743088 227.746506,79.253044 
	C234.570892,86.969437 244.507706,89.258354 254.656830,89.965401 
	C257.710449,90.178131 260.719818,89.484047 263.819183,91.282196 
	C267.799347,93.591331 269.535645,96.755051 269.880859,101.003609 
	C270.023834,102.763222 270.548035,104.235687 271.971802,105.757828 
	C269.037628,106.075600 266.043152,106.010300 262.603088,105.927887 
	C254.673782,100.632301 245.897476,101.377304 237.451263,100.687767 
	C234.280106,100.428879 231.238358,101.756203 228.352081,102.726593 
	C225.247162,103.770493 226.061432,106.138588 228.508377,108.177322 
	C228.961334,108.554359 229.124603,108.727486 229.405243,109.239548 
	C229.277786,112.063431 227.544556,113.257416 225.160889,114.239975 
	C216.432938,115.683075 208.125854,115.603355 199.472839,113.199127 
	C192.904633,112.912315 186.772263,113.158806 180.262634,112.694160 
z"/>
<path fill="#121212" opacity="1.000000" stroke="none" 
	d="
M202.047028,71.491623 
	C192.869675,71.864899 183.757004,71.849083 174.646378,71.978859 
	C171.859146,72.018555 168.986237,71.907623 166.150055,73.621819 
	C160.598267,79.235199 158.863770,86.808304 153.789490,92.465317 
	C150.567688,96.057129 152.287155,102.041710 151.427521,106.909821 
	C150.790451,110.517395 150.242844,114.080009 148.259720,117.652863 
	C140.500732,118.327721 136.924088,122.469398 135.927505,129.754791 
	C135.670349,131.634674 133.985901,133.480377 133.202576,135.807327 
	C130.761063,135.735077 130.840271,134.061325 131.028778,132.607254 
	C131.614777,128.087189 130.718719,123.405762 132.494370,119.020164 
	C133.016083,117.731606 133.453217,115.701073 132.395218,115.318230 
	C127.235016,113.450943 130.445328,109.569870 130.001709,106.615997 
	C129.405930,102.649101 131.648499,100.107094 134.568054,97.958862 
	C134.829941,97.766174 135.121307,97.613564 135.398987,97.442352 
	C131.015152,93.518295 137.812180,92.916031 137.692886,89.979851 
	C137.621841,88.231331 137.568176,86.640213 136.561813,85.376198 
	C134.307846,82.545166 134.629745,79.416878 135.412750,76.362869 
	C137.321289,68.918777 138.714355,61.187767 144.974869,55.368629 
	C151.608765,54.006466 158.991852,56.582188 164.698532,51.951870 
	C168.616058,48.773251 173.385361,48.267078 177.530365,46.037857 
	C179.719925,44.860287 180.980377,46.946148 182.697189,47.788887 
	C181.622269,49.861618 178.919128,48.370411 178.047531,50.552143 
	C178.552246,51.798855 180.440399,50.216526 181.195786,51.899925 
	C176.158295,51.917263 174.335251,54.764286 174.691162,59.124142 
	C182.954544,59.462818 190.631958,56.822388 198.294266,54.060726 
	C200.279770,53.345104 202.308502,52.301537 204.754074,53.710724 
	C206.070892,54.136974 207.569901,53.698048 207.747879,55.340271 
	C207.933975,57.057217 206.308380,56.675236 205.349213,57.136543 
	C203.992126,57.789223 201.155212,57.456783 201.623886,59.399155 
	C202.201859,61.794559 204.791321,61.013313 206.727219,60.589508 
	C207.527664,60.414276 208.322205,60.067280 209.119904,60.065838 
	C209.884079,60.064453 211.024185,60.167130 211.337372,60.651714 
	C212.047577,61.750641 211.019485,62.461281 210.144791,62.898151 
	C206.494675,64.721199 204.070923,67.706657 202.047028,71.491623 
z"/>
<path fill="#121212" opacity="1.000000" stroke="none" 
	d="
M239.969727,83.955322 
	C236.790207,82.621552 233.875732,81.502197 231.430496,79.494286 
	C227.067276,75.911407 226.273895,71.092186 226.593719,65.856316 
	C226.671158,64.588249 227.511658,64.096176 228.548920,64.096298 
	C231.217148,64.096611 233.701141,65.120628 234.582962,67.625069 
	C236.406708,72.804779 241.314056,75.109352 244.318192,79.105583 
	C241.488770,80.757256 241.488770,80.757256 244.167023,82.791527 
	C242.851135,83.193687 241.596375,83.577164 239.969727,83.955322 
z"/>
<path fill="#161616" opacity="1.000000" stroke="none" 
	d="
M190.548218,50.627323 
	C187.719086,50.868263 185.867889,50.045704 186.057526,47.219509 
	C186.179550,45.401062 185.161896,44.366013 183.519684,42.956150 
	C190.438202,43.212582 196.794067,42.759995 203.422867,45.632351 
	C198.952194,47.195179 194.677216,48.259716 190.548218,50.627323 
z"/>
<path fill="#121212" opacity="1.000000" stroke="none" 
	d="
M219.513855,50.940624 
	C215.206543,51.481880 215.384964,47.541611 213.583817,45.738712 
	C213.390396,45.545105 213.503571,44.652512 213.751862,44.477375 
	C214.909012,43.661179 216.380524,43.709312 217.515060,44.177025 
	C219.679306,45.069214 221.004562,47.151314 222.097076,49.026260 
	C222.823669,50.273174 220.743973,50.355793 219.513855,50.940624 
z"/>
<path fill="#121212" opacity="1.000000" stroke="none" 
	d="
M243.731720,85.529648 
	C243.703018,83.413277 244.970688,84.071457 246.006332,84.315910 
	C246.195526,84.360573 246.467819,84.880257 246.397446,85.064392 
	C245.913986,86.329613 244.884354,85.873856 243.731720,85.529648 
z"/>
<path fill="#BBBBBB" opacity="1.000000" stroke="none" 
	d="
M248.628693,51.363251 
	C249.000778,51.730537 249.036224,51.999527 249.006073,52.670181 
	C247.537170,52.971252 245.950287,53.346745 245.133377,51.635155 
	C246.077133,50.302525 247.250702,51.364918 248.628693,51.363251 
z"/>
<path fill="#363636" opacity="1.000000" stroke="none" 
	d="
M275.807281,111.821686 
	C276.168854,113.149582 276.354706,114.320557 276.823456,115.707138 
	C277.076019,116.412155 277.045685,116.901566 276.980469,117.756485 
	C274.678650,121.262749 276.974823,125.434067 274.469421,128.689484 
	C270.678406,123.307419 270.933838,116.545059 268.276611,110.532578 
	C270.490875,108.719940 272.429413,109.943062 274.727234,110.732979 
	C275.050171,110.968597 275.002014,111.000107 275.012543,110.973328 
	C275.204956,111.203720 275.407806,111.443130 275.807281,111.821686 
z"/>
<path fill="#3D3D3D" opacity="1.000000" stroke="none" 
	d="
M224.919724,114.801941 
	C226.149094,113.105591 227.493668,111.927582 229.082367,110.548309 
	C229.629166,108.962608 231.050323,108.948410 232.206146,108.047867 
	C233.578247,107.189056 234.750488,106.914925 236.377594,107.005119 
	C236.990417,107.133514 237.229584,107.214500 237.782135,107.510696 
	C238.394135,108.160652 238.513153,108.640045 238.248184,109.484688 
	C233.757874,111.454964 229.346069,112.858833 225.541199,116.214767 
	C225.160187,116.017097 225.097549,115.668686 224.919724,114.801941 
z"/>
<path fill="#2E2E2E" opacity="1.000000" stroke="none" 
	d="
M260.049500,110.359146 
	C260.646851,106.915085 262.852936,108.238869 264.836426,108.728546 
	C265.285980,110.762901 265.553436,112.473579 265.837677,114.557587 
	C265.545593,115.323364 265.139740,115.472404 264.398010,115.167267 
	C262.799194,113.510620 261.452362,112.097496 260.049500,110.359146 
z"/>
<path fill="#121212" opacity="1.000000" stroke="none" 
	d="
M238.483109,109.799713 
	C238.032791,109.435234 238.022125,109.065071 238.021759,108.417328 
	C238.503845,107.419487 239.227325,107.102737 240.411987,106.831665 
	C243.892410,106.591072 247.004349,106.908119 250.467178,106.362801 
	C251.102814,106.473129 251.347549,106.564133 251.818726,106.974693 
	C252.064392,107.522209 252.083618,107.750175 252.124207,108.320633 
	C247.805344,109.827721 243.320389,109.300446 238.483109,109.799713 
z"/>
<path fill="#7D7D7D" opacity="1.000000" stroke="none" 
	d="
M274.949554,110.589043 
	C272.973022,111.555573 271.261047,109.406799 268.782898,110.176910 
	C268.301758,110.010635 268.196411,109.849670 267.987000,109.419601 
	C270.246338,109.230942 272.798767,108.068268 274.949554,110.589043 
z"/>
<path fill="#757575" opacity="1.000000" stroke="none" 
	d="
M264.188110,115.254166 
	C264.526337,114.949211 264.906616,114.974686 265.570679,114.965546 
	C266.087524,115.820267 266.499420,116.731110 265.548187,117.478027 
	C265.108856,116.846878 264.669525,116.215729 264.188110,115.254166 
z"/>
<path fill="#3D3D3D" opacity="1.000000" stroke="none" 
	d="
M179.837524,112.805222 
	C186.044083,112.023605 192.219406,111.276245 198.686554,113.072479 
	C199.027878,113.475426 199.030258,113.750854 199.035370,114.439438 
	C193.015549,113.544533 186.912994,114.132950 180.402130,113.987785 
	C179.992401,113.587357 179.937637,113.298805 179.837524,112.805222 
z"/>
<path fill="#2E2E2E" opacity="1.000000" stroke="none" 
	d="
M237.237671,107.796524 
	C235.776703,108.174896 234.569901,108.345085 233.153625,108.817307 
	C231.870789,109.859428 230.711975,108.910110 229.311676,109.140427 
	C227.591354,108.476158 225.081467,110.334595 224.944855,107.040993 
	C224.846786,104.676804 225.381729,100.629776 226.923416,101.184753 
	C231.024170,102.660965 233.449203,98.436821 236.639450,99.256096 
	C242.615448,100.790779 248.823563,99.051857 254.793274,101.202522 
	C257.515991,102.183411 259.295929,104.232239 261.963593,105.617737 
	C259.043976,106.409119 255.744919,105.049400 252.403320,107.071747 
	C252.045181,107.294250 251.942963,107.091110 251.917938,106.980194 
	C248.771530,106.216736 245.801163,107.821861 242.355606,107.485489 
	C240.497940,107.241920 238.978180,106.671783 237.237671,107.796524 
z"/>
<path fill="#7D7D7D" opacity="1.000000" stroke="none" 
	d="
M275.951599,111.712860 
	C275.644318,111.830338 275.305695,111.682060 274.995056,111.240173 
	C275.322113,111.113411 275.621185,111.280258 275.951599,111.712860 
z"/>
<path fill="#272721" opacity="1.000000" stroke="none" 
	d="
M241.759567,292.202026 
	C241.964493,292.504517 241.858307,292.697205 241.501770,292.901764 
	C241.198364,292.640106 241.264053,292.366302 241.759567,292.202026 
z"/>
<path fill="#7C7C7C" opacity="1.000000" stroke="none" 
	d="
M148.440552,117.975159 
	C148.846268,113.133904 149.578629,108.291618 150.569427,103.502808 
	C150.906937,101.871613 151.120453,100.353996 150.984665,98.669441 
	C150.674744,94.824448 151.125397,91.395905 154.875443,88.806488 
	C157.195892,87.204216 158.821365,84.606415 159.143631,81.293808 
	C159.488068,77.753296 162.841934,76.141251 165.556229,73.943855 
	C165.870163,75.575836 166.386612,77.510551 165.705368,78.824127 
	C161.845673,86.266548 165.856277,91.616020 170.142609,97.324150 
	C169.571487,99.475082 167.892838,100.057991 166.414062,100.634956 
	C160.679443,102.872406 157.051514,106.671455 156.558640,113.038986 
	C156.495102,113.860046 156.111557,114.627106 155.610962,115.717133 
	C154.064499,119.429443 151.093597,117.447517 148.440552,117.975159 
z"/>
<path fill="#161616" opacity="1.000000" stroke="none" 
	d="
M155.783173,115.976860 
	C154.286270,105.511292 160.775024,100.860535 169.803574,97.773849 
	C170.172012,97.667641 170.202347,97.792747 170.147110,97.825806 
	C171.439194,101.015358 170.168808,104.594460 171.660477,108.079796 
	C171.076797,110.217705 169.564850,111.439598 168.020645,111.109024 
	C164.501526,110.355690 162.581314,112.410545 160.281067,114.726791 
	C158.736008,115.284607 157.423309,115.592636 155.783173,115.976860 
z"/>
<path fill="#757575" opacity="1.000000" stroke="none" 
	d="
M160.444855,114.943092 
	C161.460587,111.487411 162.788116,107.972755 167.810547,110.337120 
	C168.442688,110.634697 169.602264,109.811897 170.807190,109.377075 
	C172.004181,108.395988 172.796951,108.971748 173.806335,109.728996 
	C174.043594,110.581139 174.072327,111.151054 173.989853,112.136703 
	C169.635284,113.905182 165.016937,113.183975 160.444855,114.943092 
z"/>
<path fill="#292929" opacity="1.000000" stroke="none" 
	d="
M174.413223,109.964478 
	C173.234360,109.808777 172.453857,109.606346 171.385147,109.324936 
	C170.017654,105.791687 168.041626,102.427444 170.063263,98.261795 
	C177.671677,97.035461 185.264893,97.105766 192.846436,97.717796 
	C194.428238,97.845497 196.780136,97.443726 196.722076,100.293098 
	C196.679276,102.392799 197.207153,103.965324 194.483932,105.812263 
	C188.260345,110.033195 181.325409,108.511993 174.413223,109.964478 
z"/>
<path fill="#BBBBBB" opacity="1.000000" stroke="none" 
	d="
M229.080261,109.332642 
	C230.199844,107.568176 231.222595,108.843048 232.624115,109.162735 
	C231.953140,109.499031 230.962158,109.878723 229.648819,110.302734 
	C229.270142,110.122009 229.213806,109.896973 229.080261,109.332642 
z"/>
<path fill="#272727" opacity="1.000000" stroke="none" 
	d="
M204.996796,53.995811 
	C204.908478,54.032246 204.823349,54.072849 204.873322,54.059875 
	C205.008392,54.006290 205.000000,53.999985 204.996796,53.995811 
z"/>
<path fill="#272727" opacity="1.000000" stroke="none" 
	d="
M239.551193,79.470207 
	C239.582626,79.522820 239.519760,79.417595 239.551193,79.470207 
z"/>
<path fill="#FBFBFB" opacity="1.000000" stroke="none" 
	d="
M237.252274,107.986923 
	C237.628250,105.929916 238.975311,105.333382 241.213013,106.401695 
	C241.491974,106.949127 241.532104,107.203629 241.257736,107.682732 
	C240.212875,107.941864 239.482529,107.976387 238.392120,108.075333 
	C237.861710,108.082886 237.691376,108.026016 237.252274,107.986923 
z"/>
<path fill="#9C9C9C" opacity="1.000000" stroke="none" 
	d="
M241.384964,107.974815 
	C241.042694,107.711388 241.142166,107.515434 241.346741,107.007057 
	C244.810242,107.793671 248.022888,105.094612 251.639404,106.591354 
	C248.643555,108.170242 245.238342,108.133888 241.384964,107.974815 
z"/>
</svg>